<?xml version="1.0" encoding="UTF-8" standalone="no"?>
<svg
   viewBox="693.1667 431.5232 374.11445 108.18491"
   width="5076.1797"
   height="1467.9092"
   preserveAspectRatio="none"
   version="1.1"
   id="svg7"
   sodipodi:docname="Original.svg"
   xml:space="preserve"
   inkscape:version="1.2.2 (732a01da63, 2022-12-09)"
   xmlns:inkscape="http://www.inkscape.org/namespaces/inkscape"
   xmlns:sodipodi="http://sodipodi.sourceforge.net/DTD/sodipodi-0.dtd"
   xmlns:xlink="http://www.w3.org/1999/xlink"
   xmlns="http://www.w3.org/2000/svg"
   xmlns:svg="http://www.w3.org/2000/svg"><sodipodi:namedview
     id="namedview7"
     pagecolor="#ffffff"
     bordercolor="#000000"
     borderopacity="0.25"
     inkscape:showpageshadow="2"
     inkscape:pageopacity="0.0"
     inkscape:pagecheckerboard="0"
     inkscape:deskcolor="#d1d1d1"
     inkscape:zoom="0.10341613"
     inkscape:cx="-778.40855"
     inkscape:cy="-33.84385"
     inkscape:window-width="1920"
     inkscape:window-height="991"
     inkscape:window-x="-9"
     inkscape:window-y="-9"
     inkscape:window-maximized="1"
     inkscape:current-layer="svg7"
     showgrid="false"><inkscape:page
       x="0"
       y="0"
       width="374.11444"
       height="108.18491"
       id="page7"
       margin="0"
       bleed="0"
       inkscape:export-filename="../Desktop/Original.svg"
       inkscape:export-xdpi="96"
       inkscape:export-ydpi="96" /></sodipodi:namedview><defs
     id="defs1" /><style
     id="style1">.companyName {fill:#FF87B7;fill-opacity:1;}.icon3-str {stroke:#BCBCBC;stroke-opacity:1;}.shapeStroke-str {stroke:#8F8E8E;stroke-opacity:1;}.text {fill:#FF87B7;fill-opacity:1;}</style><defs
     id="defs2" /><g
     opacity="1"
     id="g3"
     transform="translate(-0.79943519,-1.465311)" /><g
     opacity="1"
     id="g5"
     transform="translate(5.6144548,9.224509)"><svg
       width="218.20959"
       height="36.620499"
       x="843.45709"
       y="459.35419"
       version="1.1"
       preserveAspectRatio="none"
       viewBox="2.12 -31.48 189.48 31.8"
       id="svg4"><g
         class="companyName"
         id="g4"
         style="fill:#ff87b7;fill-opacity:1"><path
           id="id-D6z1nYkh8"
           d="M 2.88,0 V -21.52 H 9.12 V 0 Z M 6,-24.52 q -1.72,0 -2.8,-1 -1.08,-1 -1.08,-2.48 v 0 q 0,-1.48 1.08,-2.48 1.08,-1 2.8,-1 v 0 q 1.72,0 2.8,0.96 1.08,0.96 1.08,2.4 v 0 q 0,1.56 -1.08,2.58 -1.08,1.02 -2.8,1.02 z M 25.16,0.32 q -3.4,0 -6.1,-1.42 -2.7,-1.42 -4.22,-3.94 -1.52,-2.52 -1.52,-5.72 v 0 q 0,-3.2 1.52,-5.72 1.52,-2.52 4.22,-3.94 2.7,-1.42 6.1,-1.42 v 0 q 3.4,0 6.08,1.42 2.68,1.42 4.2,3.94 1.52,2.52 1.52,5.72 v 0 q 0,3.2 -1.52,5.72 -1.52,2.52 -4.2,3.94 -2.68,1.42 -6.08,1.42 z m 0,-5.12 q 2.4,0 3.94,-1.62 1.54,-1.62 1.54,-4.34 v 0 q 0,-2.72 -1.54,-4.34 -1.54,-1.62 -3.94,-1.62 v 0 q -2.4,0 -3.96,1.62 -1.56,1.62 -1.56,4.34 v 0 q 0,2.72 1.56,4.34 1.56,1.62 3.96,1.62 z M 54.2,-21.84 q 4,0 6.46,2.4 2.46,2.4 2.46,7.12 v 0 V 0 h -6.24 v -11.36 q 0,-2.56 -1.12,-3.82 -1.12,-1.26 -3.24,-1.26 v 0 q -2.36,0 -3.76,1.46 -1.4,1.46 -1.4,4.34 v 0 V 0 h -6.24 v -21.52 h 5.96 V -19 q 1.24,-1.36 3.08,-2.1 1.84,-0.74 4.04,-0.74 z m 43.2,0.32 h 5.52 L 95.12,0 h -6 L 84.28,-13.36 79.28,0 h -6 l -7.76,-21.52 h 5.88 l 5.08,14.56 5.28,-14.56 h 5.28 l 5.12,14.56 z m 18.08,21.84 q -3.4,0 -6.1,-1.42 -2.7,-1.42 -4.22,-3.94 -1.52,-2.52 -1.52,-5.72 v 0 q 0,-3.2 1.52,-5.72 1.52,-2.52 4.22,-3.94 2.7,-1.42 6.1,-1.42 v 0 q 3.4,0 6.08,1.42 2.68,1.42 4.2,3.94 1.52,2.52 1.52,5.72 v 0 q 0,3.2 -1.52,5.72 -1.52,2.52 -4.2,3.94 -2.68,1.42 -6.08,1.42 z m 0,-5.12 q 2.4,0 3.94,-1.62 1.54,-1.62 1.54,-4.34 v 0 q 0,-2.72 -1.54,-4.34 -1.54,-1.62 -3.94,-1.62 v 0 q -2.4,0 -3.96,1.62 -1.56,1.62 -1.56,4.34 v 0 q 0,2.72 1.56,4.34 1.56,1.62 3.96,1.62 z m 21.92,-13.88 q 1.12,-1.56 3.02,-2.36 1.9,-0.8 4.38,-0.8 v 0 5.76 q -1.04,-0.08 -1.4,-0.08 v 0 q -2.68,0 -4.2,1.5 -1.52,1.5 -1.52,4.5 v 0 V 0 h -6.24 v -21.52 h 5.96 z M 164.56,0 l -6.8,-8.44 -3,2.96 V 0 h -6.24 v -29.68 h 6.24 v 16.8 l 9.12,-8.64 h 7.44 l -8.96,9.12 9.76,12.4 z m 16.88,0.32 q -2.68,0 -5.24,-0.66 Q 173.64,-1 172.12,-2 v 0 l 2.08,-4.48 q 1.44,0.92 3.48,1.5 2.04,0.58 4,0.58 v 0 q 3.96,0 3.96,-1.96 v 0 q 0,-0.92 -1.08,-1.32 -1.08,-0.4 -3.32,-0.68 v 0 q -2.64,-0.4 -4.36,-0.92 -1.72,-0.52 -2.98,-1.84 -1.26,-1.32 -1.26,-3.76 v 0 q 0,-2.04 1.18,-3.62 1.18,-1.58 3.44,-2.46 2.26,-0.88 5.34,-0.88 v 0 q 2.28,0 4.54,0.5 2.26,0.5 3.74,1.38 v 0 l -2.08,4.44 q -2.84,-1.6 -6.2,-1.6 v 0 q -2,0 -3,0.56 -1,0.56 -1,1.44 v 0 q 0,1 1.08,1.4 1.08,0.4 3.44,0.76 v 0 q 2.64,0.44 4.32,0.94 1.68,0.5 2.92,1.82 1.24,1.32 1.24,3.68 v 0 q 0,2 -1.2,3.56 -1.2,1.56 -3.5,2.42 -2.3,0.86 -5.46,0.86 z" /></g></svg></g><g
     opacity="1"
     id="g6"
     transform="translate(-0.79943519,-1.465311)"><svg
       width="2.4414001"
       height="89.354103"
       x="831.25018"
       y="442.875"
       version="1.1"
       preserveAspectRatio="none"
       viewBox="0 0 2.4414 89.3541"
       id="svg5"><defs
         id="defs5"><rect
           x="0"
           y="0"
           width="2.4414001"
           height="89.354103"
           rx="0px"
           ry="0px"
           id="id-tBXipXk0b" /></defs><use
         class="companyName shapeStroke-str"
         style="stroke-width:0"
         xlink:href="#id-tBXipXk0b"
         id="use5" /></svg></g><g
     id="g1"
     inkscape:groupmode="layer"
     inkscape:label="1"
     transform="matrix(0.0737,0,0,0.0737,1019.7809,398.25463)"><path
       id="path1"
       d="m -4130.2899,1692.849 c 402.2184,-440.8175 457.0453,-500.325 463.3116,-502.6457 3.3389,-1.323 32.0373,85.6894 63.6288,193.2529 31.6114,107.5296 61.0931,197.5356 65.547,199.9639 4.3767,2.318 184.3858,-173.5953 399.7942,-391.0063 l 391.8412,-395.19269 -45.2246,-117.51105 c -24.9021,-64.58727 -51.4908,-119.23543 -59.3179,-121.35554 -7.6956,-2.0862 -154.7726,147.53475 -326.8402,332.49382 -172.0906,184.95906 -314.4564,331.58916 -316.5691,325.95816 -2.0296,-5.6226 -32.5062,-105.3219 -67.6909,-221.62017 -35.1649,-116.26435 -66.7562,-210.34387 -70.1267,-209.01809 -7.9186,2.97098 -694.8875,1096.95026 -703.8431,1120.77956 -3.7967,10.181 88.6752,-86.2181 205.4897,-214.0988 z"
       style="fill:#7f7f7f;fill-opacity:1;fill-rule:nonzero;stroke:none;stroke-width:0.133333" /><path
       id="path2"
       d="m -4181.6949,719.11328 c -9.6314,-0.4126 -16.4152,-13.582 -20.4352,-39.42092 -1.8426,-8.36456 -4.1876,-17.39159 -7.0351,-27.16402 -10.9714,-37.93023 -15.9126,-70.72582 -14.7402,-98.38672 0.6701,-22.94033 12.3951,-46.04629 35.1754,-69.23508 22.7802,-23.1888 47.6542,-34.28629 74.7057,-33.4581 13.4002,0.49587 28.224,7.53634 44.5555,21.20118 16.2476,13.49916 24.204,26.33582 23.7852,38.42713 -0.67,18.79946 -7.6213,50.84969 -20.7702,96.06783 -12.9813,45.30093 -32.1603,75.44637 -57.6205,90.43627 -25.4603,14.82427 -44.723,22.02933 -57.6206,21.53243 z m -124.6213,962.99722 c -1.5912,43.9759 1.5076,93.5833 9.3802,148.7395 1.5074,10.435 2.1775,19.0479 2.01,25.8389 -0.5025,10.3522 -8.6263,23.5201 -24.4553,39.421 -15.9126,15.9008 -32.4116,23.6028 -49.5805,23.1888 -45.1416,-1.5735 -65.9119,-53.6656 -62.3106,-156.3588 3.7689,-106.1715 27.3028,-273.462 70.6858,-501.8716 14.9076,-79.67 22.7802,-128.6978 23.4502,-147.0831 1.0888,-36.4396 7.4537,-67.2475 19.0951,-92.424 11.5577,-25.34187 27.1353,-37.76447 46.5655,-37.10187 23.6178,0.9108 42.0429,8.6129 55.2756,23.18867 13.1488,14.5758 19.4301,30.6423 18.7601,48.0339 -0.6708,17.0603 -4.69,39.5866 -12.0601,67.5787 -40.0329,151.3069 -65.3256,259.7145 -76.0457,325.3056 -10.7201,65.4255 -17.6715,143.2736 -20.7703,233.5443 z m 0,0"
       style="fill:#7f7f7f;fill-opacity:1;fill-rule:nonzero;stroke:none;stroke-width:1.49449"
       aria-label="i" /></g></svg>
